<svg width="108" height="91" viewBox="0 0 108 91" fill="none" xmlns="http://www.w3.org/2000/svg">
<path d="M102.2 43.2501C102.218 49.1895 100.553 55.0485 97.3398 60.35C93.5298 66.7029 87.6725 72.0463 80.4241 75.7818C73.1757 79.5173 64.8224 81.4973 56.2999 81.5C49.1726 81.5155 42.1418 80.1278 35.7799 77.45L5 86L15.26 60.35C12.0466 55.0485 10.3814 49.1895 10.4 43.2501C10.4033 36.148 12.7793 29.1869 17.2619 23.1466C21.7444 17.1062 28.1565 12.2252 35.7799 9.05012C42.1418 6.37232 49.1726 4.98464 56.2999 5.00013H58.9999C70.2554 5.51759 80.8863 9.47655 88.8572 16.119C96.8281 22.7614 101.579 31.6205 102.2 41.0001V43.2501Z" stroke="white" stroke-width="10" stroke-linecap="round" stroke-linejoin="round"/>
</svg>
