<svg width="97" height="81" viewBox="0 0 97 81" fill="none" xmlns="http://www.w3.org/2000/svg">
<path d="M48.4999 45.5775C51.1447 45.5775 53.2886 43.4335 53.2886 40.7887C53.2886 38.144 51.1447 36 48.4999 36C45.8552 36 43.7112 38.144 43.7112 40.7887C43.7112 43.4335 45.8552 45.5775 48.4999 45.5775Z" fill="white" stroke="white" stroke-width="10" stroke-linecap="round" stroke-linejoin="round"/>
<path d="M86.2111 45.5775C88.8558 45.5775 90.9998 43.4335 90.9998 40.7887C90.9998 38.144 88.8558 36 86.2111 36C83.5664 36 81.4224 38.144 81.4224 40.7887C81.4224 43.4335 83.5664 45.5775 86.2111 45.5775Z" fill="white" stroke="white" stroke-width="10" stroke-linecap="round" stroke-linejoin="round"/>
<path d="M10.7887 45.5775C13.4335 45.5775 15.5775 43.4335 15.5775 40.7887C15.5775 38.144 13.4335 36 10.7887 36C8.14399 36 6 38.144 6 40.7887C6 43.4335 8.14399 45.5775 10.7887 45.5775Z" fill="white" stroke="white" stroke-width="10" stroke-linecap="round" stroke-linejoin="round"/>
</svg>
