<svg width="81" height="81" viewBox="0 0 81 81" fill="none" xmlns="http://www.w3.org/2000/svg">
<path fill-rule="evenodd" clip-rule="evenodd" d="M40.5 81C62.8675 81 81 62.8675 81 40.5C81 18.1325 62.8675 0 40.5 0C18.1325 0 0 18.1325 0 40.5C0 62.8675 18.1325 81 40.5 81ZM31.3742 43C29.0757 43 26.8712 43.9131 25.2459 45.5384C23.6206 47.1637 22.7075 49.3681 22.7075 51.6667V55C22.7075 56.1046 23.6029 57 24.7075 57C25.8121 57 26.7075 56.1046 26.7075 55V51.6667C26.7075 50.429 27.1992 49.242 28.0744 48.3668C28.9495 47.4917 30.1365 47 31.3742 47H43.0409C44.2786 47 45.4656 47.4917 46.3407 48.3668C47.2159 49.242 47.7076 50.429 47.7076 51.6667V55C47.7076 56.1046 48.603 57 49.7076 57C50.8121 57 51.7076 56.1046 51.7076 55V51.6667C51.7076 49.3681 50.7945 47.1637 49.1692 45.5384C47.5438 43.9131 45.3394 43 43.0409 43H31.3742ZM37.2071 27C34.6298 27 32.5405 29.0893 32.5405 31.6667C32.5405 34.244 34.6298 36.3334 37.2071 36.3334C39.7845 36.3334 41.8738 34.244 41.8738 31.6667C41.8738 29.0893 39.7845 27 37.2071 27ZM28.5405 31.6667C28.5405 26.8802 32.4207 23 37.2071 23C41.9936 23 45.8738 26.8802 45.8738 31.6667C45.8738 36.4532 41.9936 40.3334 37.2071 40.3334C32.4207 40.3334 28.5405 36.4532 28.5405 31.6667ZM62.7882 36.4142C63.5693 35.6332 63.5693 34.3669 62.7882 33.5858C62.0072 32.8048 60.7409 32.8048 59.9598 33.5858L54.7074 38.8383L52.7882 36.9191C52.0072 36.1381 50.7409 36.1381 49.9598 36.9191C49.1788 37.7002 49.1788 38.9665 49.9598 39.7476L53.2931 43.0809C53.6682 43.456 54.1769 43.6667 54.7074 43.6667C55.2378 43.6667 55.7465 43.456 56.1216 43.0809L62.7882 36.4142Z" fill="white"/>
</svg>
