<svg width="109" height="91" viewBox="0 0 109 91" fill="none" xmlns="http://www.w3.org/2000/svg">
<path d="M72.5 86V77C72.5 72.2261 70.6035 67.6477 67.2279 64.2721C63.8522 60.8964 59.2739 59 54.5 59H23C18.2261 59 13.6477 60.8964 10.2721 64.2721C6.89642 67.6477 5 72.2261 5 77V86" stroke="white" stroke-width="10" stroke-linecap="round" stroke-linejoin="round"/>
<path d="M38.75 41C48.6911 41 56.75 32.9411 56.75 23C56.75 13.0589 48.6911 5 38.75 5C28.8089 5 20.75 13.0589 20.75 23C20.75 32.9411 28.8089 41 38.75 41Z" stroke="white" stroke-width="10" stroke-linecap="round" stroke-linejoin="round"/>
<path d="M90.4988 27.4996V54.4996" stroke="white" stroke-width="10" stroke-linecap="round" stroke-linejoin="round"/>
<path d="M104 40.9998H77" stroke="white" stroke-width="10" stroke-linecap="round" stroke-linejoin="round"/>
</svg>
