<svg width="109" height="91" viewBox="0 0 109 91" fill="none" xmlns="http://www.w3.org/2000/svg">
<path d="M72.5002 86V77C72.5002 72.2261 70.6037 67.6477 67.2281 64.272C63.8524 60.8964 59.274 58.9999 54.5001 58.9999H23C18.2261 58.9999 13.6478 60.8964 10.2721 64.272C6.89643 67.6477 5 72.2261 5 77V86" stroke="white" stroke-width="10" stroke-linecap="round" stroke-linejoin="round"/>
<path d="M38.7493 41.0001C48.6905 41.0001 56.7494 32.9412 56.7494 23C56.7494 13.0589 48.6905 5 38.7493 5C28.8082 5 20.7493 13.0589 20.7493 23C20.7493 32.9412 28.8082 41.0001 38.7493 41.0001Z" stroke="white" stroke-width="10" stroke-linecap="round" stroke-linejoin="round"/>
<path d="M77.0002 41.0001L86.0003 50.0001L104 32.0001" stroke="white" stroke-width="10" stroke-linecap="round" stroke-linejoin="round"/>
</svg>
