<svg width="37" height="37" viewBox="0 0 37 37" fill="none" xmlns="http://www.w3.org/2000/svg">
<circle cx="17.7" cy="17.7" r="5" fill="white"/>
<path fill-rule="evenodd" clip-rule="evenodd" d="M37 18.5C37 28.7173 28.7173 37 18.5 37C8.28273 37 0 28.7173 0 18.5C0 8.28273 8.28273 0 18.5 0C28.7173 0 37 8.28273 37 18.5ZM22.8808 21.8212C23.7899 20.6817 24.3333 19.2376 24.3333 17.6667C24.3333 13.9848 21.3486 11 17.6667 11C13.9848 11 11 13.9848 11 17.6667C11 21.3486 13.9848 24.3333 17.6667 24.3333C19.2377 24.3333 20.6818 23.7899 21.8212 22.8808C21.8289 22.8891 21.8367 22.8973 21.8447 22.9053L25.4697 26.5303C25.7626 26.8232 26.2375 26.8232 26.5304 26.5303C26.8233 26.2374 26.8233 25.7626 26.5304 25.4697L22.9054 21.8447C22.8973 21.8366 22.8892 21.8288 22.8808 21.8212Z" fill="white"/>
</svg>
